<svg clip-rule="evenodd" fill-rule="evenodd" height="512" image-rendering="optimizeQuality" shape-rendering="geometricPrecision" text-rendering="geometricPrecision" viewBox="0 0 1706.66 1706.66" width="512" xmlns="http://www.w3.org/2000/svg" xmlns:xodm="http://www.corel.com/coreldraw/odm/2003"><g id="Layer_x0020_1"><path d="m1400.44 1404.2h-1094.24c-168.83 0-306.19-137.35-306.19-306.19 0-163.76 129.23-297.91 291.06-305.84 10.46-191.85 218.5-305.69 384.99-215 45.59-160.76 194.29-274.72 363.74-274.72 255.3 0 435.72 248.25 361.37 489.35 168.51.39 305.46 137.59 305.46 306.2-.01 168.83-137.37 306.19-306.2 306.19z" fill="#77b5fe"/><path d="m821.44 1105.83c-7.94 0-15.44-4.77-18.57-12.57l-34.37-85.91h-105.2l-34.37 85.91c-9.78 24.45-46.91 9.58-37.14-14.86l105.54-263.78c6.69-16.69 30.45-16.7 37.13 0l105.54 263.78c5.28 13.21-4.71 27.44-18.57 27.44zm274.81-1.06h-134.45c-26.33 0-26.32-40 0-40h47.22v-224.48c-30.88 0-67.22 6.82-67.22-20 0-11.04 8.97-20 20-20h134.45c26.33 0 26.33 40 0 40h-47.24v224.48c30.87 0 67.24-6.82 67.24 20 0 11.03-8.96 20-20 20zm-343.75-137.41-36.59-91.47-36.59 91.47h73.19z" fill="#fff"/></g></svg>