<?xml version="1.0" encoding="iso-8859-1"?>
<!-- Generator: Adobe Illustrator 19.0.0, SVG Export Plug-In . SVG Version: 6.00 Build 0)  -->
<svg version="1.1" id="Capa_1" xmlns="http://www.w3.org/2000/svg" xmlns:xlink="http://www.w3.org/1999/xlink" x="0px" y="0px"
	 viewBox="0 0 512.018 512.018" style="enable-background:new 0 0 512.018 512.018;" xml:space="preserve">
<path style="fill:#4CDBC4;" d="M495.529,512.008H16.489l11.915-69.483c11.605-67.563,70.187-116.96,138.752-116.96h177.707
	c68.565,0,127.147,49.397,138.752,116.96L495.529,512.008z"/>
<path style="fill:#F8B64C;" d="M321.673,294.962v30.976c0,0-15.627,33.76-53.696,42.592h-0.224
	c-5.109,1.248-10.741,2.037-16.683,2.155c-50.293-1.024-70.496-44.747-70.496-44.747v-30.624
	c9.045,7.019,19.253,12.736,30.315,16.245c1.579,0.565,3.189,1.013,4.768,1.472c8.405,2.485,17.12,3.733,26.272,3.733h18.293
	C283.177,316.765,304.34,308.328,321.673,294.962"/>
<g style="opacity:0.1;">
	<g>
		<path style="fill:#40596B;" d="M321.673,294.962v30.976c0,0-15.627,33.76-53.696,42.592h-0.224l-52.107-55.499
			c8.405,2.485,17.12,3.733,26.272,3.733h18.293C283.177,316.765,304.34,308.328,321.673,294.962"/>
	</g>
</g>
<rect x="251.07" y="370.6" style="fill:#FFD15C;" width="0.021" height="0.043"/>
<g>
	<path style="fill:#40596B;" d="M335.017,256.008c0,0,59.275,65.301,44.48,105.984c-14.805,40.683-16.768,90.784-4.181,101.877
		c0,0-2.389,13.568-23.339-8.629c0,0-63.765-60.235-50.208-134.208C301.769,321.032,321.364,302.898,335.017,256.008"/>
	<path style="fill:#40596B;" d="M358.014,189.746c0,0,15.861-57.291-80.875-99.563c0,0-46.955,71.381-107.061,76.085
		c0,0,10.325-5.643,13.131-10.336c0,0-14.091,10.965-38.528-13.461c0,0-0.629,14.475-0.811,32.704
		c-0.203,20.779,3.125,41.493,9.856,61.152l9.771,28.555c0,0-73.259-48.832-42.272-174.699c0,0,21.6-108.949,164.373-87.349
		c0,0,91.104,15.968,89.216,138.069C374.814,140.904,375.284,171.602,358.014,189.746"/>
</g>
<path style="fill:#F8B64C;" d="M161.609,193.501c4.16,17.835,1.963,33.6-4.917,35.2c-6.869,1.6-15.797-11.563-19.979-29.397
	c-4.149-17.835-1.963-33.589,4.917-35.2C148.5,162.493,157.449,175.656,161.609,193.501"/>
<path style="fill:#F2F2F2;" d="M437.865,409.085l-7.253,102.933H81.385l-7.253-102.933c-0.853-6.293,4.16-11.947,10.56-11.947
	h342.603C433.705,397.138,438.718,402.792,437.865,409.085"/>
<g>
	<path style="fill:#ACB3BA;" d="M269.95,472.349c-7.563,0-13.685,6.304-13.685,14.005
		C263.742,486.354,269.865,480.114,269.95,472.349"/>
	<path style="fill:#ACB3BA;" d="M271.998,506.365c0,2.027,0.32,3.947,1.173,5.653h-41.291c-1.269-12.587,4.373-23.573,12.917-24.213
		c2.016-0.213,4.053,0.107,5.867,1.067c3.947,1.92,8.224,1.92,12.053,0c1.92-0.96,3.947-1.28,5.984-1.067
		c3.936,0.213,7.349,2.987,9.707,7.04C274.665,497.298,272.105,501.565,271.998,506.365"/>
</g>
<path style="fill:#F8B64C;" d="M340.404,193.501c-4.171,17.835-1.973,33.6,4.896,35.2c6.88,1.6,14.603-11.883,19.979-29.397
	c3.211-10.443,1.728-31.808-4.896-35.2C354.089,160.893,344.564,175.656,340.404,193.501"/>
<path style="fill:#FFD15C;" d="M277.129,90.194c0,0-46.955,71.381-107.061,76.075c0,0,10.315-5.632,13.141-10.325
	c0,0-14.08,10.933-38.475-13.397c-0.021,0.277-0.043,0.565-0.096,0.832c-0.139,3.328-0.629,16.149-0.779,31.808
	c-0.085,9.109,0.629,18.176,1.877,27.179c0.597,3.68,1.163,7.36,1.931,11.04c0,0.011,0,0.011,0.011,0.021
	c0.885,4.32,1.963,8.619,3.083,12.896c0.939,3.339,1.824,6.72,2.955,10.005l6.347,18.549c19.264,49.205,52.757,89.067,90.944,89.067
	c57.493,0,104.373-90.208,107.851-166.827C357.769,157.874,345.929,120.232,277.129,90.194"/>
<path style="fill:#334A5E;" d="M373.758,179.144v34.848c-7.147,49.493-49.813,87.68-101.227,87.68h-13.643v-13.333h13.643
	c44.064,0,80.747-32.213,87.691-74.347h-6.187c0,0,3.851-17.749,4.725-34.848L373.758,179.144L373.758,179.144z"/>
<path style="fill:#FF7058;" d="M266.846,311.485h-21.664c-9.12,0-16.544-7.403-16.544-16.523c0-9.131,7.413-16.533,16.544-16.533
	h21.664c9.131,0,16.533,7.403,16.533,16.533C283.369,304.082,275.977,311.485,266.846,311.485"/>
<g>
</g>
<g>
</g>
<g>
</g>
<g>
</g>
<g>
</g>
<g>
</g>
<g>
</g>
<g>
</g>
<g>
</g>
<g>
</g>
<g>
</g>
<g>
</g>
<g>
</g>
<g>
</g>
<g>
</g>
</svg>
