<svg id="Layer_1" height="512" viewBox="0 0 48 48" width="512" xmlns="http://www.w3.org/2000/svg" data-name="Layer 1"><path d="m37.573 17.978-11-6.6a5 5 0 0 0 -5.145 0l-11 6.6a5.024 5.024 0 0 0 -2.428 4.287v19.735a5.006 5.006 0 0 0 5 5h22a5.006 5.006 0 0 0 5-5v-19.735a5.024 5.024 0 0 0 -2.427-4.287z" fill="#25cd7f"/><g fill="#f4f4f4"><path d="m24 32a4 4 0 1 1 4-4 1 1 0 0 1 -2 0 2 2 0 1 0 -2 2 1 1 0 0 1 0 2z"/><path d="m24 38a4 4 0 0 1 -4-4 1 1 0 0 1 2 0 2 2 0 1 0 2-2 1 1 0 0 1 0-2 4 4 0 0 1 0 8z"/><path d="m24 26a1 1 0 0 1 -1-1v-2a1 1 0 0 1 2 0v2a1 1 0 0 1 -1 1z"/><path d="m24 40a1 1 0 0 1 -1-1v-2a1 1 0 0 1 2 0v2a1 1 0 0 1 -1 1z"/></g><path d="m30 11.5a6.61 6.61 0 0 1 -.24 1.79l-1.81-1.08a5.519 5.519 0 0 0 .05-.71 4.275 4.275 0 0 0 -4-4.5 4.275 4.275 0 0 0 -4 4.5 5.519 5.519 0 0 0 .05.71 4.426 4.426 0 0 0 .3 1.15 4.047 4.047 0 0 0 3.65 2.64 1 1 0 0 1 0 2 6.01 6.01 0 0 1 -5.5-3.88 5.623 5.623 0 0 1 -.27-.82 7.162 7.162 0 0 1 -.23-1.8 6.274 6.274 0 0 1 6-6.5 6.274 6.274 0 0 1 6 6.5z" fill="#ffd524"/></svg>