<svg id="Layer_1" enable-background="new 0 0 28 28" viewBox="0 0 28 28" xmlns="http://www.w3.org/2000/svg"><g><g><g><g><path d="m25 10.9466419v12.0999756c0 1.1000366-.8900146 2-2 2h-18c-1.1099854 0-2-.8999634-2-2v-12.0999756c0-1.1099854.8900146-2 2-2 1.8946896.0081816-6.8636073-.0296383 18.5300293.0800171.8499756.2199707 1.4699707 1 1.4699707 1.9199829z" fill="#d9dce3"/></g><g><path d="m9.2036133 14.2239857h-2.2075195c-.5522461 0-1-.4477539-1-1s.4477539-1 1-1h2.2075195c.5522461 0 1 .4477539 1 1s-.4477539 1-1 1z" fill="#fff"/></g></g><g><path d="m13.715332 17.99547h-6.7192382c-.5522461 0-1-.4477539-1-1s.4477539-1 1-1h6.7192383c.5522461 0 1 .4477539 1 1s-.447754 1-1.0000001 1z" fill="#fff"/></g><g><path d="m19.4448242 21.7664661h-12.4487304c-.5522461 0-1-.4477539-1-1s.4477539-1 1-1h12.4487305c.5522461 0 1 .4477539 1 1s-.447754 1-1.0000001 1z" fill="#fff"/></g></g><path d="m23.711832 4.4624004-1.6383057-1.1471517c-.90481-.6335542-2.1519012-.4136572-2.7854557.4911537l-4.9709902 7.0993223c-.496419.7089605-.7495012 1.5598068-.7212591 2.4248266l.0798206 2.4448586c.0199127.6099281.6197805 1.0299587 1.1997356.8400631l2.3247147-.7611885c.8225117-.2693176 1.5354843-.7981443 2.0319042-1.5071058l4.9709892-7.0993218c.6335546-.9048112.4136564-2.1519025-.4911536-2.7854565z" fill="#8c8cff"/></g></svg>