<svg id="Layer_1" enable-background="new 0 0 512 512" height="512" viewBox="0 0 512 512" width="512" xmlns="http://www.w3.org/2000/svg"><g clip-rule="evenodd" fill-rule="evenodd"><path d="m468.056 48.24c22.946 22.946 26.398 60.428 13.429 102.479-12.461 40.403-40.192 85.417-80.24 125.466-4.351 4.351-9.103 8.852-14.227 13.483-3.93 3.554-7.832 6.941-11.697 10.164l2.52 84.828c.068 2.486-1.009 4.737-2.753 6.247l.003.003-60.007 51.738c-3.331 2.882-8.368 2.518-11.25-.813-.503-.581-.906-1.214-1.213-1.878l-.006.003-37.185-80.649c-3.516.866-7.055 1.623-10.61 2.27-5.715 1.04-11.232 1.738-16.519 2.083-2.38.149-4.581-.76-6.145-2.323l-.011.011-77.202-77.202c-1.822-1.822-2.58-4.303-2.278-6.675.356-5.128 1.042-10.471 2.049-15.999.647-3.555 1.405-7.094 2.27-10.611l-80.649-37.185c-4.004-1.846-5.753-6.59-3.906-10.594.379-.822.881-1.549 1.472-2.169l51.484-59.712c1.688-1.951 4.115-2.883 6.505-2.743l84.573 2.512c3.222-3.866 6.61-7.767 10.164-11.697 4.632-5.123 9.132-9.876 13.482-14.226 40.049-40.049 85.064-67.78 125.467-80.241 42.052-12.968 79.534-9.515 102.48 13.43z" fill="#fd4755"/><path d="m407.823 108.473c11.235 11.235 15.394 27.198 13.035 43.923-2.25 15.952-10.484 32.662-24.17 46.348-13.686 13.687-30.397 21.922-46.349 24.171-16.725 2.359-32.688-1.8-43.924-13.035-11.235-11.235-15.394-27.199-13.035-43.923 2.25-15.952 10.485-32.662 24.171-46.348 13.687-13.687 30.397-21.921 46.349-24.171 16.725-2.359 32.688 1.8 43.923 13.035z" fill="#615260"/><path d="m78.653 273.485c3.124-3.124 8.189-3.124 11.313 0s3.124 8.189 0 11.313l-53.298 53.297c-3.124 3.124-8.189 3.124-11.313 0s-3.124-8.189 0-11.313zm144.253 144.253c3.124-3.124 8.189-3.124 11.313 0s3.124 8.189 0 11.313l-53.297 53.297c-3.124 3.124-8.189 3.124-11.313 0s-3.124-8.189 0-11.313zm-72.126-72.126c3.124-3.124 8.189-3.124 11.313 0s3.124 8.189 0 11.313l-81.997 81.995c-3.124 3.124-8.189 3.124-11.313 0s-3.124-8.189 0-11.313z" fill="#615260"/><path d="m468.056 48.24c22.946 22.946 26.398 60.428 13.429 102.479-12.461 40.403-40.192 85.417-80.24 125.466-4.351 4.351-9.103 8.852-14.227 13.483-3.93 3.554-7.832 6.941-11.697 10.164l2.52 84.828c.068 2.486-1.009 4.737-2.753 6.247l.003.003-60.007 51.738c-3.331 2.882-8.368 2.518-11.25-.813-.503-.581-.906-1.214-1.213-1.878l-.006.003-1.353-2.935 37.829-32.616-.003-.003c1.744-1.51 2.821-3.761 2.753-6.247l-2.52-84.828c3.866-3.222 7.767-6.61 11.697-10.164 5.123-4.632 9.876-9.132 14.227-13.483 40.049-40.048 67.78-85.063 80.24-125.466 12.968-42.05 9.517-79.533-13.429-102.479-21.912-21.912-57.081-26.046-96.826-15.08 10.298-4.834 20.461-8.8 30.347-11.849 42.051-12.968 79.533-9.515 102.479 13.43zm-352.45 104.309 9.78-11.343c1.688-1.951 4.115-2.883 6.505-2.743l84.573 2.512c-4.256 4.639-8.412 9.364-12.443 14.2z" fill="#e4404d"/><path d="m407.823 108.473c11.235 11.235 15.394 27.198 13.035 43.923-2.25 15.952-10.484 32.662-24.17 46.348-13.142 13.143-29.073 21.258-44.444 23.874 8.415-4.114 16.545-9.849 23.819-17.124 13.686-13.686 21.92-30.396 24.17-46.348 2.358-16.725-1.8-32.688-13.035-43.923s-27.198-15.394-43.923-13.035c-.633.089-1.268.189-1.904.297 7.417-3.626 15.056-5.993 22.529-7.047 16.725-2.359 32.688 1.8 43.923 13.035z" fill="#4e434d"/></g></svg>