<svg clip-rule="evenodd" fill-rule="evenodd" height="512" image-rendering="optimizeQuality" shape-rendering="geometricPrecision" text-rendering="geometricPrecision" viewBox="0 0 512 512" width="512" xmlns="http://www.w3.org/2000/svg"><g id="Layer_x0020_1"><path d="m256 512c-141 0-256-115-256-256s115-256 256-256 256 115 256 256-115 256-256 256z" fill="#df5a49"/><path d="m256 435c-98 0-179-80-179-179 0-98 80-179 179-179 98 0 179 80 179 179 0 98-81 179-179 179z" fill="#fff"/><path d="m256 364c-59 0-107-48-107-108 0-59 48-107 107-107 60 0 108 48 108 107 0 60-48 108-108 108z" fill="#df5a49"/><path d="m179 263h-46c-4 0-8-3-8-7s4-7 8-7h46c5 0 8 3 8 7s-3 7-8 7z" fill="#b5493b"/><path d="m256 300c-24 0-44-20-44-44s20-44 44-44 44 20 44 44-20 44-44 44z" fill="#fff"/><g fill="#b5493b"><path d="m256 187c-4 0-7-3-7-8v-46c0-4 3-8 7-8 5 0 8 4 8 8v46c-1 5-4 8-8 8z"/><path d="m379 263h-46c-5 0-8-3-8-7s3-7 8-7h46c4 0 8 3 8 7s-4 7-8 7z"/><path d="m256 386c-4 0-7-3-7-7v-46c0-5 3-8 7-8s7 3 7 8v46c0 4-3 7-7 7z"/><path d="m416 104c-3 0-4-1-5-2-3-3-3-8 0-11l33-32c3-3 7-3 10 0s3 7 0 10l-33 33c-2 2-4 2-5 2z"/><path d="m448 456c-2 0-3-1-5-2l-32-33c-3-3-3-8 0-11 2-3 7-3 10 0l33 33c3 3 3 8 0 11-2 1-4 2-6 2z"/><path d="m64 456c-2 0-4-1-5-2-3-3-3-8 0-11l32-32c3-3 8-3 11 0 3 2 3 7 0 10l-33 33c-2 1-4 2-5 2z"/><path d="m97 104c-2 0-4-1-5-2l-33-33c-3-3-3-8 0-11s7-3 10 0l33 33c3 3 3 8 0 10-1 2-3 3-5 3z"/></g></g></svg>